<svg width="25" height="25" viewBox="0 0 25 25" fill="none" xmlns="http://www.w3.org/2000/svg">
<g id="Shopping Cart 02">
<path id="Vector" d="M3.91504 3.125H4.1772C4.64088 3.125 4.87272 3.125 5.0625 3.21354C5.2288 3.29271 5.37162 3.41875 5.47335 3.57917C5.59074 3.76042 5.6328 4.00313 5.71595 4.48646L7.82794 16.6667H18.023C18.4661 16.6667 18.6882 16.6667 18.8721 16.5833C19.0341 16.5094 19.1744 16.3903 19.2781 16.2385C19.3955 16.0667 19.4453 15.8375 19.5451 15.3781V15.375L21.0809 8.29167C21.2316 7.59479 21.3079 7.24479 21.2247 6.97083C21.1513 6.7306 20.9983 6.52698 20.7943 6.39792C20.5635 6.25 20.2279 6.25 19.5569 6.25H6.3606M18.5884 21.875C18.329 21.875 18.0802 21.7653 17.8967 21.5699C17.7133 21.3746 17.6102 21.1096 17.6102 20.8333C17.6102 20.5571 17.7133 20.2921 17.8967 20.0968C18.0802 19.9014 18.329 19.7917 18.5884 19.7917C18.8479 19.7917 19.0967 19.9014 19.2801 20.0968C19.4636 20.2921 19.5666 20.5571 19.5666 20.8333C19.5666 21.1096 19.4636 21.3746 19.2801 21.5699C19.0967 21.7653 18.8479 21.875 18.5884 21.875ZM8.80617 21.875C8.54672 21.875 8.29791 21.7653 8.11446 21.5699C7.931 21.3746 7.82794 21.1096 7.82794 20.8333C7.82794 20.5571 7.931 20.2921 8.11446 20.0968C8.29791 19.9014 8.54672 19.7917 8.80617 19.7917C9.06561 19.7917 9.31442 19.9014 9.49788 20.0968C9.68133 20.2921 9.78439 20.5571 9.78439 20.8333C9.78439 21.1096 9.68133 21.3746 9.49788 21.5699C9.31442 21.7653 9.06561 21.875 8.80617 21.875Z" stroke="black" stroke-width="1.5" stroke-linecap="round" stroke-linejoin="round"/>
</g>
</svg>
