<svg aria-hidden="true" style="position:absolute;width:0;height:0;overflow:hidden"
    xmlns="http://www.w3.org/2000/svg">
    <defs>

        <symbol id="facebook" viewBox="0 0 24 24">
            <path d="M9.30473 21H13.1524V13.4116H16.6191L17 9.64105H13.1524V7.73684C13.1524 7.48558 13.2537 7.24462 13.4341 7.06695C13.6145 6.88929 13.8592 6.78947 14.1143 6.78947H17V3H14.1143C12.8387 3 11.6154 3.49906 10.7134 4.38739C9.81145 5.27572 9.30473 6.48055 9.30473 7.73684V9.64105H7.38092L7 13.4116H9.30473V21Z" fill="currentColor"/>
        </symbol>

        <symbol id="instagram" viewBox="0 0 24 24">
            <path d="M12 3C14.4497 3 14.7515 3.01775 15.7101 3.05325C16.6509 3.08876 17.3077 3.24852 17.8935 3.47929C18.497 3.71006 18.9941 4.01183 19.4911 4.50888C19.9882 5.00592 20.2899 5.50296 20.5207 6.10651C20.7515 6.69231 20.9112 7.34911 20.9467 8.28994C20.9822 9.24852 21 9.5503 21 12C21 14.4497 20.9822 14.7515 20.9467 15.7101C20.9112 16.6509 20.7515 17.3077 20.5207 17.8935C20.2899 18.497 19.9882 18.9941 19.4911 19.4911C18.9941 19.9882 18.497 20.2899 17.8935 20.5207C17.3077 20.7515 16.6509 20.9112 15.7101 20.9467C14.7515 20.9822 14.4497 21 12 21C9.5503 21 9.24852 20.9822 8.28994 20.9467C7.34911 20.9112 6.69231 20.7515 6.10651 20.5207C5.50296 20.2899 5.00592 19.9882 4.50888 19.4911C4.01183 18.9941 3.71006 18.497 3.47929 17.8935C3.24852 17.3077 3.08876 16.6509 3.05325 15.7101C3.01775 14.7515 3 14.4497 3 12C3 9.5503 3.01775 9.24852 3.05325 8.28994C3.08876 7.34911 3.24852 6.69231 3.47929 6.10651C3.71006 5.50296 4.01183 5.00592 4.50888 4.50888C5.00592 4.01183 5.50296 3.71006 6.10651 3.47929C6.69231 3.24852 7.34911 3.08876 8.28994 3.05325C9.24852 3.01775 9.5503 3 12 3ZM12 4.1716C9.44379 4.1716 9.14201 4.18935 8.14793 4.22485C7.22485 4.26036 6.71006 4.43787 6.37278 4.56213C5.50296 4.91716 4.91716 5.50296 4.56213 6.37278C4.43787 6.71006 4.26036 7.22485 4.22485 8.14793C4.18935 9.14201 4.1716 9.44379 4.1716 12C4.1716 14.5562 4.18935 14.858 4.22485 15.8521C4.26036 16.7751 4.43787 17.2899 4.56213 17.6272C4.91716 18.497 5.50296 19.0828 6.37278 19.4379C6.71006 19.5621 7.22485 19.7396 8.14793 19.7751C9.14201 19.8107 9.44379 19.8284 12 19.8284C14.5562 19.8284 14.858 19.8107 15.8521 19.7751C16.7751 19.7396 17.2899 19.5621 17.6272 19.4379C18.497 19.0828 19.0828 18.497 19.4379 17.6272C19.5621 17.2899 19.7396 16.7751 19.7751 15.8521C19.8107 14.858 19.8284 14.5562 19.8284 12C19.8284 9.44379 19.8107 9.14201 19.7751 8.14793C19.7396 7.22485 19.5621 6.71006 19.4379 6.37278C19.0828 5.50296 18.497 4.91716 17.6272 4.56213C17.2899 4.43787 16.7751 4.26036 15.8521 4.22485C14.858 4.18935 14.5562 4.1716 12 4.1716ZM12 15.6036C13.9882 15.6036 15.6036 13.9882 15.6036 12C15.6036 10.0118 13.9882 8.39645 12 8.39645C10.0118 8.39645 8.39645 10.0118 8.39645 12C8.39645 13.9882 10.0118 15.6036 12 15.6036ZM12 7.38462C14.5562 7.38462 16.6154 9.44379 16.6154 12C16.6154 14.5562 14.5562 16.6154 12 16.6154C9.44379 16.6154 7.38462 14.5562 7.38462 12C7.38462 9.44379 9.44379 7.38462 12 7.38462ZM17.8935 7.2071C17.8935 7.81065 17.3965 8.27219 16.7929 8.27219C16.1893 8.27219 15.7278 7.81065 15.7278 7.2071C15.7278 6.60355 16.1893 6.10651 16.7929 6.10651C17.3965 6.10651 17.8935 6.60355 17.8935 7.2071Z" fill="black"/>
        </symbol>

        <symbol id="basket" viewBox="0 0 24 24">
            <path id="Vector" d="M3.91504 3.125H4.1772C4.64088 3.125 4.87272 3.125 5.0625 3.21354C5.2288 3.29271 5.37162 3.41875 5.47335 3.57917C5.59074 3.76042 5.6328 4.00313 5.71595 4.48646L7.82794 16.6667H18.023C18.4661 16.6667 18.6882 16.6667 18.8721 16.5833C19.0341 16.5094 19.1744 16.3903 19.2781 16.2385C19.3955 16.0667 19.4453 15.8375 19.5451 15.3781V15.375L21.0809 8.29167C21.2316 7.59479 21.3079 7.24479 21.2247 6.97083C21.1513 6.7306 20.9983 6.52698 20.7943 6.39792C20.5635 6.25 20.2279 6.25 19.5569 6.25H6.3606M18.5884 21.875C18.329 21.875 18.0802 21.7653 17.8967 21.5699C17.7133 21.3746 17.6102 21.1096 17.6102 20.8333C17.6102 20.5571 17.7133 20.2921 17.8967 20.0968C18.0802 19.9014 18.329 19.7917 18.5884 19.7917C18.8479 19.7917 19.0967 19.9014 19.2801 20.0968C19.4636 20.2921 19.5666 20.5571 19.5666 20.8333C19.5666 21.1096 19.4636 21.3746 19.2801 21.5699C19.0967 21.7653 18.8479 21.875 18.5884 21.875ZM8.80617 21.875C8.54672 21.875 8.29791 21.7653 8.11446 21.5699C7.931 21.3746 7.82794 21.1096 7.82794 20.8333C7.82794 20.5571 7.931 20.2921 8.11446 20.0968C8.29791 19.9014 8.54672 19.7917 8.80617 19.7917C9.06561 19.7917 9.31442 19.9014 9.49788 20.0968C9.68133 20.2921 9.78439 20.5571 9.78439 20.8333C9.78439 21.1096 9.68133 21.3746 9.49788 21.5699C9.31442 21.7653 9.06561 21.875 8.80617 21.875Z" stroke="black" stroke-width="1.5" stroke-linecap="round" stroke-linejoin="round"/>
        </symbol>

        <symbol id="search" viewBox="0 0 24 24">
            <g id="Search">
                <path id="Vector" d="M10.33 19C14.4792 19 17.8428 15.4183 17.8428 11C17.8428 6.58172 14.4792 3 10.33 3C6.18084 3 2.81726 6.58172 2.81726 11C2.81726 15.4183 6.18084 19 10.33 19Z" stroke="black" stroke-width="2"/>
                <path id="Vector_2" d="M19.721 21L15.6359 16.65" stroke="black" stroke-width="2"/>
            </g>
        </symbol>

        <symbol id="user" viewBox="0 0 24 24">
            <path id="Vector" fill-rule="evenodd" clip-rule="evenodd" d="M13.4399 14.175H7.77405C6.82553 14.175 5.91586 14.5762 5.24515 15.2904C4.57444 16.0046 4.19764 16.9733 4.19764 17.9834C4.19764 18.5084 4.51515 18.858 4.87605 18.922C6.23976 19.1625 8.26708 19.425 10.607 19.425C12.9469 19.425 14.9742 19.1625 16.3379 18.921C16.6988 18.858 17.0163 18.5073 17.0163 17.9834C17.0163 16.9733 16.6395 16.0046 15.9688 15.2904C15.2981 14.5762 14.3884 14.175 13.4399 14.175ZM7.77405 12.6C6.43325 12.6 5.14737 13.1672 4.19928 14.1767C3.2512 15.1863 2.71857 16.5556 2.71857 17.9834C2.71857 19.2097 3.49755 20.2755 4.63446 20.475C6.05635 20.727 8.1665 21 10.607 21C13.0475 21 15.1576 20.727 16.5795 20.475C17.7154 20.2755 18.4954 19.2097 18.4954 17.9834C18.4954 16.5556 17.9628 15.1863 17.0147 14.1767C16.0666 13.1672 14.7807 12.6 13.4399 12.6H7.77405ZM7.1558 5.25C7.1558 5.73261 7.24506 6.21049 7.4185 6.65636C7.59194 7.10223 7.84615 7.50736 8.16662 7.84862C8.4871 8.18987 8.86755 8.46057 9.28627 8.64526C9.70498 8.82994 10.1538 8.925 10.607 8.925C11.0602 8.925 11.509 8.82994 11.9277 8.64526C12.3464 8.46057 12.7269 8.18987 13.0473 7.84862C13.3678 7.50736 13.622 7.10223 13.7955 6.65636C13.9689 6.21049 14.0582 5.73261 14.0582 5.25C14.0582 4.27533 13.6945 3.34058 13.0473 2.65138C12.4001 1.96219 11.5223 1.575 10.607 1.575C9.69167 1.575 8.81385 1.96219 8.16662 2.65138C7.5194 3.34058 7.1558 4.27533 7.1558 5.25ZM10.607 0C9.29939 0 8.04536 0.553123 7.12076 1.53769C6.19616 2.52226 5.67672 3.85761 5.67672 5.25C5.67672 6.64239 6.19616 7.97774 7.12076 8.96231C8.04536 9.94688 9.29939 10.5 10.607 10.5C11.9146 10.5 13.1686 9.94688 14.0932 8.96231C15.0178 7.97774 15.5372 6.64239 15.5372 5.25C15.5372 3.85761 15.0178 2.52226 14.0932 1.53769C13.1686 0.553123 11.9146 0 10.607 0Z" fill="black"/>
        </symbol>




    </defs>
</svg>


